<svg width="244" height="247" viewBox="0 0 244 247" fill="none" xmlns="http://www.w3.org/2000/svg">
<ellipse cx="122" cy="126.5" rx="122" ry="111.5" fill="url(#paint0_linear_7_63)"/>
<path d="M186.405 94H168.792C167.75 88.9337 165.927 84.483 163.323 80.6477C160.766 76.8125 157.641 73.5928 153.948 70.9886C150.302 68.3371 146.254 66.3485 141.803 65.0227C137.352 63.697 132.712 63.0341 127.882 63.0341C119.076 63.0341 111.097 65.2595 103.948 69.7102C96.8455 74.161 91.1874 80.7188 86.9734 89.3835C82.8067 98.0483 80.7234 108.678 80.7234 121.273C80.7234 133.867 82.8067 144.497 86.9734 153.162C91.1874 161.827 96.8455 168.384 103.948 172.835C111.097 177.286 119.076 179.511 127.882 179.511C132.712 179.511 137.352 178.848 141.803 177.523C146.254 176.197 150.302 174.232 153.948 171.628C157.641 168.976 160.766 165.733 163.323 161.898C165.927 158.015 167.75 153.564 168.792 148.545H186.405C185.079 155.979 182.665 162.632 179.161 168.503C175.657 174.374 171.301 179.369 166.093 183.489C160.884 187.561 155.037 190.662 148.55 192.793C142.111 194.923 135.221 195.989 127.882 195.989C115.477 195.989 104.445 192.958 94.7859 186.898C85.1268 180.837 77.5273 172.22 71.9876 161.045C66.4478 149.871 63.6779 136.614 63.6779 121.273C63.6779 105.932 66.4478 92.6742 71.9876 81.5C77.5273 70.3258 85.1268 61.7083 94.7859 55.6477C104.445 49.5871 115.477 46.5568 127.882 46.5568C135.221 46.5568 142.111 47.6222 148.55 49.7528C155.037 51.8835 160.884 55.0085 166.093 59.1278C171.301 63.1998 175.657 68.1714 179.161 74.0426C182.665 79.8665 185.079 86.5189 186.405 94Z" fill="black"/>
<mask id="path-3-outside-1_7_63" maskUnits="userSpaceOnUse" x="75" y="99" width="94" height="96" fill="black">
<rect fill="white" x="75" y="99" width="94" height="96"/>
<path d="M76.3352 100.909H89.7898L121.426 178.182H122.517L154.153 100.909H167.608V194H157.062V123.273H156.153L127.062 194H116.881L87.7898 123.273H86.8807V194H76.3352V100.909Z"/>
</mask>
<path d="M76.3352 100.909H89.7898L121.426 178.182H122.517L154.153 100.909H167.608V194H157.062V123.273H156.153L127.062 194H116.881L87.7898 123.273H86.8807V194H76.3352V100.909Z" fill="black"/>
<path d="M76.3352 100.909V99.9091H75.3352V100.909H76.3352ZM89.7898 100.909L90.7152 100.53L90.4609 99.9091H89.7898V100.909ZM121.426 178.182L120.501 178.561L120.755 179.182H121.426V178.182ZM122.517 178.182V179.182H123.188L123.442 178.561L122.517 178.182ZM154.153 100.909V99.9091H153.482L153.228 100.53L154.153 100.909ZM167.608 100.909H168.608V99.9091H167.608V100.909ZM167.608 194V195H168.608V194H167.608ZM157.062 194H156.062V195H157.062V194ZM157.062 123.273H158.062V122.273H157.062V123.273ZM156.153 123.273V122.273H155.483L155.229 122.892L156.153 123.273ZM127.062 194V195H127.732L127.987 194.38L127.062 194ZM116.881 194L115.956 194.38L116.211 195H116.881V194ZM87.7898 123.273L88.7146 122.892L88.4597 122.273H87.7898V123.273ZM86.8807 123.273V122.273H85.8807V123.273H86.8807ZM86.8807 194V195H87.8807V194H86.8807ZM76.3352 194H75.3352V195H76.3352V194ZM76.3352 101.909H89.7898V99.9091H76.3352V101.909ZM88.8643 101.288L120.501 178.561L122.352 177.803L90.7152 100.53L88.8643 101.288ZM121.426 179.182H122.517V177.182H121.426V179.182ZM123.442 178.561L155.079 101.288L153.228 100.53L121.592 177.803L123.442 178.561ZM154.153 101.909H167.608V99.9091H154.153V101.909ZM166.608 100.909V194H168.608V100.909H166.608ZM167.608 193H157.062V195H167.608V193ZM158.062 194V123.273H156.062V194H158.062ZM157.062 122.273H156.153V124.273H157.062V122.273ZM155.229 122.892L126.138 193.62L127.987 194.38L157.078 123.653L155.229 122.892ZM127.062 193H116.881V195H127.062V193ZM117.806 193.62L88.7146 122.892L86.8649 123.653L115.956 194.38L117.806 193.62ZM87.7898 122.273H86.8807V124.273H87.7898V122.273ZM85.8807 123.273V194H87.8807V123.273H85.8807ZM86.8807 193H76.3352V195H86.8807V193ZM77.3352 194V100.909H75.3352V194H77.3352Z" fill="black" mask="url(#path-3-outside-1_7_63)"/>
<path d="M67.4989 64.1705V48.5455H176.59V64.1705H130.851V194H113.238V64.1705H67.4989Z" fill="black"/>
<defs>
<linearGradient id="paint0_linear_7_63" x1="126.5" y1="15" x2="125" y2="238" gradientUnits="userSpaceOnUse">
<stop offset="0.36" stop-color="#FEF9F9"/>
<stop offset="1" stop-color="#989595"/>
</linearGradient>
</defs>
</svg>
